<svg xmlns="http://www.w3.org/2000/svg" id="Layer_1" x="0" y="0" viewBox="0 0 388.6 108.9" xml:space="preserve">  <style>    .st0{ fill: white }.st1{fill:#ffc629}  </style>  <path class="st0" d="M276.1 39.3V74H269V39.3c0-1.9 1.5-3.4 3.5-3.4s3.6 1.5 3.6 3.4zM51.5 43.4h-.2C48.7 39 44.2 36 37.5 36c-12.1 0-18.3 9.4-18.3 19.3 0 9.8 6.1 19.3 18.2 19.3 6.7 0 11-3.1 13.5-6.9h.2v3.8c0 8.7-6.4 11.7-12.5 11.7-6 0-9.6-2.5-12-4.5-.1-.1-.5-.4-.5-.4-.4-.4-1.1-.7-1.9-.7-1.7 0-3.1 1.4-3.1 3.1 0 .9.3 1.7 1.9 3.2 3 2.7 8.3 5.1 15.7 5.1 12.9 0 19.6-7.1 19.6-18.6V36.9h-6.8v6.5zM38.9 68.5c-7.2 0-12.3-5.6-12.3-13.3 0-7.7 5.1-13.3 12.3-13.3 7.3 0 12.4 5.6 12.4 13.3 0 7.7-5.1 13.3-12.4 13.3zM85.5 36c-13.5 0-19 10.5-19 19.5 0 9.6 6.3 19.5 19.6 19.5 7.3 0 13.7-3 17.3-9.3l-5.1-3.2c-2.3 4.1-6.4 6.8-11.8 6.8-7.6 0-12.8-5.2-12.9-12.4h30.5c.1-.8.1-1.2.1-1.7 0-8.9-5.3-19.2-18.7-19.2zM73.8 51.7c1.1-6.1 5.6-10.3 11.7-10.3 5.9 0 10.5 4 11.7 10.3H73.8zM131.2 36c-6 0-9.6 2.7-11.8 5.9h-.1v-5h-6.8V74h7.1V52.9c0-7 3.8-11.1 10-11.1 6 0 8.9 3.8 8.9 10.8V74h7.1V51.4c0-9.8-5.3-15.4-14.4-15.4zM173.1 36c-13.1 0-19.9 10-19.9 19.4 0 9.4 6.8 19.5 19.9 19.5 13 0 19.9-10.1 19.9-19.5-.1-9.4-6.9-19.4-19.9-19.4zm0 32.9c-7.2 0-12.7-5.6-12.7-13.5s5.5-13.5 12.7-13.5c7.2 0 12.7 5.6 12.7 13.5s-5.5 13.5-12.7 13.5zM244.7 36c-6.8 0-10.6 3.1-12.9 7.1-2.2-4.7-6.3-7.1-12.2-7.1-5.9 0-9.2 2.6-11.4 5.9h-.2v-5h-6.8V74h7.1V52.9c0-7 3.6-11.1 9.5-11.1 5.8 0 8.5 3.8 8.5 10.8V74h7.1V52.9c0-7 3.6-11.1 9.5-11.1 5.8 0 8.6 3.8 8.6 10.8V74h7.1V51.4c0-9.8-5.1-15.4-13.9-15.4zM272.6 22.8c-2.6 0-4.5 1.9-4.5 4.4 0 2.6 2 4.4 4.5 4.4 2.6 0 4.5-1.8 4.5-4.4 0-2.5-2-4.4-4.5-4.4zM306 36c-6 0-9.6 2.7-11.8 5.9h-.2v-5h-6.8V74h7.1V52.9c0-7 3.8-11.1 10-11.1 6 0 8.9 3.8 8.9 10.8V74h7.1V51.4c.1-9.8-5.2-15.4-14.3-15.4zM360.2 21.2V43h-.2c-2.3-3.7-6.5-7-13.3-7C335 36 328 45.1 328 55.3c0 9.4 5.9 19.6 18.7 19.6 6.5 0 11.1-3.2 13.7-7.3h.2V74h6.8V21.2h-7.2zM347.7 69c-7.4 0-12.5-5.9-12.5-13.5s5-13.5 12.5-13.5c7.6 0 12.6 6 12.6 13.5 0 7.6-5.2 13.5-12.6 13.5z"></path>  <g>    <path class="st1" d="M384.9 35.2c-2 0-3.6-1.6-3.6-3.6V7.2H357c-2 0-3.6-1.6-3.6-3.6S355 0 357 0h31.6v31.6c0 2-1.7 3.6-3.7 3.6zM3.6 73.2c2 0 3.6 1.6 3.6 3.6v24.3h24.3c2 0 3.6 1.6 3.6 3.6s-1.6 3.6-3.6 3.6H0V76.7c0-1.9 1.6-3.5 3.6-3.5z"></path>  </g>  <g>    <path d="M74.9 108.4H73V91.1h-6.4v-1.7h14.7v1.7h-6.4v17.3zM85.4 97.9c.3-.7.9-1.3 1.7-1.7.8-.4 1.6-.6 2.5-.6 1.6 0 2.8.5 3.6 1.4.8 1 1.2 2.2 1.2 3.8v7.7h-1.8v-7c0-.7-.1-1.3-.2-1.8s-.3-1-.6-1.4c-.3-.4-.6-.7-1-.9-.4-.2-1-.3-1.7-.3-.5 0-1 .1-1.4.3-.5.2-.9.5-1.2.9s-.6.9-.9 1.5c-.2.6-.3 1.3-.3 2.2v6.4h-1.8V88.1h1.8l.1 9.8zM110.5 101.7v.9h-10.4c0 .6.1 1.2.4 1.8.2.6.6 1 1 1.5.4.4.9.7 1.5 1 .6.2 1.2.4 1.8.4.9 0 1.8-.2 2.5-.7.7-.4 1.2-.9 1.6-1.5l1.4 1.1c-.8.9-1.6 1.6-2.5 2-.9.4-1.9.6-2.9.6-.9 0-1.8-.2-2.6-.5s-1.5-.8-2.1-1.4c-.6-.6-1-1.3-1.4-2.1-.3-.8-.5-1.7-.5-2.6 0-.9.2-1.8.5-2.6s.8-1.5 1.3-2.1c.6-.6 1.2-1.1 2-1.4.8-.3 1.6-.5 2.5-.5 1 0 1.9.2 2.6.5.8.3 1.4.8 1.9 1.3.5.6.9 1.2 1.1 2 .2.7.3 1.5.3 2.3zm-1.8-.6c-.1-1.2-.4-2.2-1.1-2.9-.7-.8-1.7-1.2-3-1.2-.6 0-1.2.1-1.7.3-.5.2-1 .5-1.4.9-.4.4-.7.8-.9 1.3-.2.5-.4 1-.4 1.5h8.5zM130.4 92.4c-.4-.6-.9-1-1.6-1.4-.6-.3-1.4-.5-2.3-.5-.5 0-.9.1-1.4.2-.5.1-.9.4-1.3.7-.4.3-.7.7-1 1.1-.2.4-.4 1-.4 1.6 0 .6.1 1.1.3 1.5.2.4.5.7.9 1 .4.3.8.5 1.3.7.5.2 1 .4 1.5.5.7.2 1.3.4 2 .7.7.3 1.3.6 1.8 1s1 .9 1.3 1.5c.3.6.5 1.4.5 2.4 0 .9-.2 1.8-.5 2.5-.4.7-.8 1.3-1.4 1.7-.6.4-1.2.8-2 1-.7.2-1.5.3-2.2.3-.6 0-1.1-.1-1.7-.2-.6-.1-1.1-.3-1.6-.5s-1-.5-1.5-.9l-1.2-1.2 1.7-1.2c.4.7 1 1.2 1.7 1.7s1.6.7 2.6.7c.5 0 1-.1 1.5-.2.5-.2 1-.4 1.4-.7.4-.3.7-.7 1-1.2.3-.5.4-1 .4-1.6 0-.7-.1-1.2-.4-1.7-.3-.4-.6-.8-1-1.1-.4-.3-.9-.5-1.5-.7s-1.1-.4-1.7-.6c-.6-.2-1.2-.4-1.9-.7-.6-.3-1.2-.6-1.6-1-.5-.4-.9-.9-1.2-1.5-.3-.6-.4-1.3-.4-2.2 0-.9.2-1.7.6-2.4.4-.7.8-1.2 1.4-1.6.6-.4 1.2-.7 2-.9.7-.2 1.4-.3 2.1-.3 1.3 0 2.4.2 3.3.7.9.5 1.6 1 2.1 1.6l-1.6 1.2zM145.3 98.7c-.3-.5-.7-.9-1.3-1.2-.6-.3-1.2-.5-1.9-.5s-1.4.1-2 .4c-.6.3-1.1.6-1.5 1.1-.4.5-.7 1-1 1.6-.2.6-.3 1.3-.3 2s.1 1.4.3 2c.2.6.5 1.1 1 1.6.4.5.9.8 1.5 1.1.6.3 1.3.4 2 .4.8 0 1.5-.2 2-.5.6-.3 1-.7 1.4-1.2l1.4 1c-.5.7-1.2 1.2-2 1.6-.8.4-1.7.6-2.8.6-1 0-1.9-.2-2.8-.5-.8-.3-1.5-.8-2.1-1.4-.6-.6-1-1.3-1.4-2.1-.3-.8-.5-1.7-.5-2.6 0-.9.2-1.8.5-2.6s.8-1.5 1.4-2.1c.6-.6 1.3-1.1 2.1-1.4.8-.3 1.7-.5 2.8-.5.8 0 1.7.2 2.6.6.9.4 1.6.9 2.1 1.6l-1.5 1zM151.9 91c0 .4-.1.7-.4.9-.3.2-.6.4-.9.4s-.6-.1-.9-.4c-.3-.2-.4-.6-.4-.9 0-.4.1-.7.4-.9.3-.2.6-.4.9-.4s.6.1.9.4c.3.2.4.5.4.9zm-.4 17.4h-1.8V95.8h1.8v12.6zM167.8 101.7v.9h-10.4c0 .6.1 1.2.4 1.8.2.6.6 1 1 1.5.4.4.9.7 1.5 1 .6.2 1.2.4 1.8.4.9 0 1.8-.2 2.5-.7.7-.4 1.2-.9 1.6-1.5l1.4 1.1c-.8.9-1.6 1.6-2.5 2-.9.4-1.9.6-2.9.6-.9 0-1.8-.2-2.6-.5s-1.5-.8-2.1-1.4c-.6-.6-1-1.3-1.4-2.1-.3-.8-.5-1.7-.5-2.6 0-.9.2-1.8.5-2.6s.8-1.5 1.3-2.1c.6-.6 1.2-1.1 2-1.4.8-.3 1.6-.5 2.5-.5 1 0 1.9.2 2.6.5.8.3 1.4.8 1.9 1.3.5.6.9 1.2 1.1 2 .2.7.3 1.5.3 2.3zm-1.9-.6c-.1-1.2-.4-2.2-1.1-2.9-.7-.8-1.7-1.2-3-1.2-.6 0-1.2.1-1.7.3-.5.2-1 .5-1.4.9-.4.4-.7.8-.9 1.3-.2.5-.4 1-.4 1.5h8.5zM173.3 95.8c0 .3.1.7.1 1.1v1h.1c.4-.7.9-1.3 1.7-1.8.8-.5 1.7-.7 2.6-.7 1.6 0 2.8.5 3.6 1.4.8 1 1.2 2.2 1.2 3.8v7.7h-1.8v-7c0-.7-.1-1.3-.2-1.8s-.3-1-.6-1.4c-.3-.4-.6-.7-1-.9-.4-.2-1-.3-1.7-.3-.5 0-1 .1-1.4.3-.5.2-.9.5-1.2.9-.4.4-.6.9-.9 1.5s-.3 1.3-.3 2.2v6.4h-1.8V97.1c0-.5 0-1-.1-1.5h1.7zM196.3 98.7c-.3-.5-.7-.9-1.3-1.2-.6-.3-1.2-.5-1.9-.5s-1.4.1-2 .4c-.6.3-1.1.6-1.5 1.1-.4.5-.7 1-1 1.6-.2.6-.3 1.3-.3 2s.1 1.4.3 2c.2.6.5 1.1 1 1.6.4.5.9.8 1.5 1.1.6.3 1.3.4 2 .4.8 0 1.5-.2 2-.5.6-.3 1-.7 1.4-1.2l1.4 1c-.5.7-1.2 1.2-2 1.6-.8.4-1.7.6-2.8.6-1 0-1.9-.2-2.8-.5-.8-.3-1.5-.8-2.1-1.4-.6-.6-1-1.3-1.4-2.1-.3-.8-.5-1.7-.5-2.6 0-.9.2-1.8.5-2.6s.8-1.5 1.4-2.1c.6-.6 1.3-1.1 2.1-1.4.8-.3 1.7-.5 2.8-.5.8 0 1.7.2 2.6.6.9.4 1.6.9 2.1 1.6l-1.5 1zM212.1 101.7v.9h-10.4c0 .6.1 1.2.4 1.8.2.6.6 1 1 1.5.4.4.9.7 1.5 1 .6.2 1.2.4 1.8.4.9 0 1.8-.2 2.5-.7.7-.4 1.2-.9 1.6-1.5l1.4 1.1c-.8.9-1.6 1.6-2.5 2-.9.4-1.9.6-2.9.6-.9 0-1.8-.2-2.6-.5s-1.5-.8-2.1-1.4c-.6-.6-1-1.3-1.4-2.1-.3-.8-.5-1.7-.5-2.6 0-.9.2-1.8.5-2.6s.8-1.5 1.3-2.1c.6-.6 1.2-1.1 2-1.4.8-.3 1.6-.5 2.5-.5 1 0 1.9.2 2.6.5.8.3 1.4.8 1.9 1.3.5.6.9 1.2 1.1 2 .2.7.3 1.5.3 2.3zm-1.8-.6c-.1-1.2-.4-2.2-1.1-2.9-.7-.8-1.7-1.2-3-1.2-.6 0-1.2.1-1.7.3s-1 .5-1.4.9c-.4.4-.7.8-.9 1.3-.2.5-.4 1-.4 1.5h8.5zM222.8 89.4h5.7c.7 0 1.4.1 2.2.2.7.2 1.4.4 2 .8.6.4 1.1.9 1.4 1.5.4.6.6 1.4.6 2.4s-.3 1.9-.9 2.6c-.6.7-1.4 1.2-2.5 1.5v.1c1.2.1 2.3.6 3.1 1.4.8.8 1.2 1.9 1.2 3.3 0 .8-.2 1.5-.5 2.2-.3.7-.8 1.2-1.4 1.7-.6.5-1.4.8-2.2 1.1-.9.3-1.9.4-2.9.4H223V89.4zm2 8.3h3.9c.5 0 .9-.1 1.4-.2.5-.1.9-.3 1.3-.6s.7-.6 1-1c.2-.4.4-1 .4-1.6 0-.6-.1-1.1-.4-1.5-.2-.4-.6-.8-1-1-.4-.3-.9-.5-1.5-.6-.6-.1-1.1-.2-1.8-.2h-3.4v6.7zm0 9h3.6c.7 0 1.4-.1 2-.2.6-.1 1.2-.3 1.7-.6s.9-.7 1.1-1.2c.3-.5.4-1 .4-1.7 0-1.3-.4-2.2-1.3-2.8-.9-.6-2.1-.9-3.6-.9h-3.9v7.4zM251.2 101.7v.9h-10.4c0 .6.1 1.2.4 1.8.2.6.6 1 1 1.5.4.4.9.7 1.5 1 .6.2 1.2.4 1.8.4.9 0 1.8-.2 2.5-.7.7-.4 1.2-.9 1.6-1.5l1.4 1.1c-.8.9-1.6 1.6-2.5 2-.9.4-1.9.6-2.9.6-.9 0-1.8-.2-2.6-.5s-1.5-.8-2.1-1.4c-.6-.6-1-1.3-1.4-2.1-.3-.8-.5-1.7-.5-2.6 0-.9.2-1.8.5-2.6s.8-1.5 1.3-2.1c.6-.6 1.2-1.1 2-1.4.8-.3 1.6-.5 2.5-.5 1 0 1.9.2 2.6.5.8.3 1.4.8 1.9 1.3.5.6.9 1.2 1.1 2 .2.7.3 1.5.3 2.3zm-1.8-.6c-.1-1.2-.4-2.2-1.1-2.9-.7-.8-1.7-1.2-3-1.2-.6 0-1.2.1-1.7.3s-1 .5-1.4.9c-.4.4-.7.8-.9 1.3-.2.5-.4 1-.4 1.5h8.5zM257 97.9c.3-.7.9-1.3 1.7-1.7.8-.4 1.6-.6 2.5-.6 1.6 0 2.8.5 3.6 1.4.8 1 1.2 2.2 1.2 3.8v7.7h-1.8v-7c0-.7-.1-1.3-.2-1.8s-.3-1-.6-1.4c-.3-.4-.6-.7-1-.9-.4-.2-1-.3-1.7-.3-.5 0-1 .1-1.4.3-.5.2-.9.5-1.2.9s-.6.9-.9 1.5c-.2.6-.3 1.3-.3 2.2v6.4h-1.8V88.1h1.8l.1 9.8zM273 91c0 .4-.1.7-.4.9-.3.2-.6.4-.9.4s-.6-.1-.9-.4c-.3-.2-.4-.6-.4-.9 0-.4.1-.7.4-.9.3-.2.6-.4.9-.4s.6.1.9.4c.2.2.4.5.4.9zm-.4 17.4h-1.8V95.8h1.8v12.6zM279.1 95.8c0 .3.1.7.1 1.1v1h.1c.4-.7.9-1.3 1.7-1.8.8-.5 1.7-.7 2.6-.7 1.6 0 2.8.5 3.6 1.4.8 1 1.2 2.2 1.2 3.8v7.7h-1.8v-7c0-.7-.1-1.3-.2-1.8s-.3-1-.6-1.4c-.3-.4-.6-.7-1-.9-.4-.2-1-.3-1.7-.3-.5 0-1 .1-1.4.3-.5.2-.9.5-1.2.9-.4.4-.6.9-.9 1.5s-.3 1.3-.3 2.2v6.4h-1.8V97.1c0-.5 0-1-.1-1.5h1.7zM303.4 106.3c-.5.8-1.2 1.4-2.1 1.8-.9.4-1.7.6-2.7.6-1 0-1.9-.2-2.7-.5-.8-.3-1.5-.8-2-1.4-.6-.6-1-1.3-1.3-2.1s-.5-1.7-.5-2.6.2-1.8.5-2.6.8-1.5 1.3-2.1c.6-.6 1.2-1.1 2-1.4.8-.3 1.7-.5 2.7-.5.9 0 1.8.2 2.7.6.9.4 1.6 1 2.1 1.9h.1v-9.9h1.8v20.3h-1.8l-.1-2.1zm-9.4-4.2c0 .7.1 1.4.3 2 .2.6.5 1.2.9 1.6s.9.8 1.5 1.1c.6.3 1.3.4 2 .4s1.3-.1 1.9-.4c.6-.3 1.1-.6 1.5-1.1.4-.4.8-1 1-1.6.2-.6.4-1.3.4-2s-.1-1.4-.4-2c-.2-.6-.6-1.2-1-1.6-.4-.5-.9-.8-1.5-1.1-.6-.3-1.2-.4-1.9-.4-.8 0-1.4.1-2 .4-.6.3-1.1.6-1.5 1.1-.4.5-.7 1-.9 1.6-.1.6-.3 1.3-.3 2zM316.9 89.4h5.7c.7 0 1.4.1 2.2.2.7.2 1.4.4 2 .8.6.4 1.1.9 1.4 1.5.4.6.6 1.4.6 2.4s-.3 1.9-.9 2.6c-.6.7-1.4 1.2-2.5 1.5v.1c1.2.1 2.3.6 3.1 1.4.8.8 1.2 1.9 1.2 3.3 0 .8-.2 1.5-.5 2.2-.3.7-.8 1.2-1.4 1.7-.6.5-1.4.8-2.2 1.1-.9.3-1.9.4-2.9.4h-5.6V89.4zm1.9 8.3h3.9c.5 0 .9-.1 1.4-.2.5-.1.9-.3 1.3-.6s.7-.6 1-1c.2-.4.4-1 .4-1.6 0-.6-.1-1.1-.4-1.5-.2-.4-.6-.8-1-1-.4-.3-.9-.5-1.5-.6-.6-.1-1.1-.2-1.8-.2h-3.4v6.7zm0 9h3.6c.7 0 1.4-.1 2-.2.6-.1 1.2-.3 1.7-.6s.9-.7 1.1-1.2c.3-.5.4-1 .4-1.7 0-1.3-.4-2.2-1.3-2.8-.9-.6-2.1-.9-3.6-.9h-3.9v7.4zM345.3 101.7v.9h-10.4c0 .6.1 1.2.4 1.8.2.6.6 1 1 1.5.4.4.9.7 1.5 1 .6.2 1.2.4 1.8.4.9 0 1.8-.2 2.5-.7.7-.4 1.2-.9 1.6-1.5l1.4 1.1c-.8.9-1.6 1.6-2.5 2-.9.4-1.9.6-2.9.6-.9 0-1.8-.2-2.6-.5s-1.5-.8-2.1-1.4c-.6-.6-1-1.3-1.4-2.1-.3-.8-.5-1.7-.5-2.6 0-.9.2-1.8.5-2.6s.8-1.5 1.3-2.1c.6-.6 1.2-1.1 2-1.4.8-.3 1.6-.5 2.5-.5 1 0 1.9.2 2.6.5.8.3 1.4.8 1.9 1.3.5.6.9 1.2 1.1 2 .2.7.3 1.5.3 2.3zm-1.8-.6c-.1-1.2-.4-2.2-1.1-2.9-.7-.8-1.7-1.2-3-1.2-.6 0-1.2.1-1.7.3-.5.2-1 .5-1.4.9-.4.4-.7.8-.9 1.3-.2.5-.4 1-.4 1.5h8.5zM354.9 97.3h-3.5v7.3c0 .5 0 .9.1 1.2.1.3.2.5.4.7.2.2.4.3.6.3.2.1.5.1.8.1.3 0 .5 0 .8-.1.3-.1.5-.2.8-.3l.1 1.6c-.3.1-.7.2-1 .3-.3.1-.7.1-1.1.1-.3 0-.7 0-1.1-.1-.4-.1-.7-.3-1-.5-.3-.3-.6-.6-.8-1-.2-.4-.3-1-.3-1.7v-7.8h-2.6v-1.5h2.6v-3.5h1.8v3.5h3.5v1.4zM363.4 97.3h-3.5v7.3c0 .5 0 .9.1 1.2.1.3.2.5.4.7.2.2.4.3.6.3.2.1.5.1.8.1.3 0 .5 0 .8-.1.3-.1.5-.2.8-.3l.1 1.6c-.3.1-.7.2-1 .3-.3.1-.7.1-1.1.1-.3 0-.7 0-1.1-.1-.4-.1-.7-.3-1-.5-.3-.3-.6-.6-.8-1-.2-.4-.3-1-.3-1.7v-7.8h-2.6v-1.5h2.6v-3.5h1.8v3.5h3.5v1.4zM377.6 101.7v.9h-10.4c0 .6.1 1.2.4 1.8.2.6.6 1 1 1.5.4.4.9.7 1.5 1 .6.2 1.2.4 1.8.4.9 0 1.8-.2 2.5-.7.7-.4 1.2-.9 1.6-1.5l1.4 1.1c-.8.9-1.6 1.6-2.5 2-.9.4-1.9.6-2.9.6-.9 0-1.8-.2-2.6-.5s-1.5-.8-2.1-1.4c-.6-.6-1-1.3-1.4-2.1-.3-.8-.5-1.7-.5-2.6 0-.9.2-1.8.5-2.6s.8-1.5 1.3-2.1c.6-.6 1.2-1.1 2-1.4.8-.3 1.6-.5 2.5-.5 1 0 1.9.2 2.6.5.8.3 1.4.8 1.9 1.3.5.6.9 1.2 1.1 2 .2.7.3 1.5.3 2.3zm-1.8-.6c-.1-1.2-.4-2.2-1.1-2.9-.7-.8-1.7-1.2-3-1.2-.6 0-1.2.1-1.7.3s-1 .5-1.4.9c-.4.4-.7.8-.9 1.3-.2.5-.4 1-.4 1.5h8.5zM381.5 97.3c0-.5 0-1-.1-1.5h1.7c0 .3.1.7.1 1.1v1h.1c.4-.7.9-1.3 1.6-1.8.7-.5 1.5-.7 2.4-.7h.6c.2 0 .4.1.6.1l-.2 1.7c-.1 0-.3-.1-.5-.1-.3 0-.5-.1-.8-.1-.5 0-.9.1-1.4.3-.4.2-.8.5-1.2.8-.3.4-.6.9-.8 1.5-.2.6-.3 1.3-.3 2.2v6.4h-1.8V97.3z"></path>  </g></svg>